<?xml version="1.0" encoding="utf-8"?>
<!-- Generator: Adobe Illustrator 24.3.0, SVG Export Plug-In . SVG Version: 6.00 Build 0)  -->
<svg version="1.1" id="Layer_1" xmlns="http://www.w3.org/2000/svg" xmlns:xlink="http://www.w3.org/1999/xlink" x="0px" y="0px"
	 viewBox="0 0 256 256" style="enable-background:new 0 0 256 256;" xml:space="preserve">
<g>
	<path d="M251.61,135.57c-0.51-10.4-4.29-19.49-11.96-26.74c-1.06-1.01-2.6-1.5-4.88-2.77c5.3-2.5,8.66-3.95,11.89-5.64
		c3.03-1.57,4.07-4.37,3.98-7.65c-0.08-3.14-1.6-5.26-4.46-6.61c-9.03-4.24-17.45-3.03-24.46,3.86c-0.97-2.07-1.92-3.98-2.79-5.94
		c-2.71-6.17-5.11-12.5-8.1-18.53c-5.08-10.27-12.74-17.84-24.53-19.5c-9.9-1.4-19.91-2.28-29.9-2.76
		c-8.07-0.39-16.14-0.61-24.2-0.63c-8.06,0.01-16.13,0.24-24.2,0.63c-9.99,0.48-20,1.36-29.9,2.76
		c-11.79,1.66-19.45,9.23-24.53,19.5c-2.98,6.03-5.39,12.36-8.1,18.53c-0.86,1.96-1.82,3.87-2.79,5.94
		c-7.01-6.89-15.43-8.1-24.46-3.86c-2.86,1.35-4.38,3.47-4.46,6.61c-0.09,3.28,0.94,6.08,3.98,7.65c3.23,1.69,6.59,3.14,11.89,5.64
		c-2.28,1.27-3.82,1.77-4.88,2.77c-4.34,4.11-7.43,8.8-9.39,14c2.72-1.95,6.06-3.09,9.65-3.09h0.27v-2.22c0-4.54,3.7-8.23,8.24-8.23
		h1.06c2,0,3.86,0.73,5.28,1.94c1.44-1.2,3.28-1.94,5.3-1.94h1.06c2.01,0,3.86,0.73,5.28,1.94c1.44-1.2,3.28-1.94,5.3-1.94h1.06
		c2.01,0,3.86,0.73,5.28,1.94c1.44-1.2,3.28-1.94,5.3-1.94h1.06c4.54,0,8.23,3.69,8.23,8.23v2.22h2.07c9.21,0,16.7,7.48,16.7,16.69
		v1.18h2c4.54,0,8.23,3.69,8.23,8.23v1.06c0,2.01-0.72,3.86-1.92,5.3c1.2,1.43,1.92,3.27,1.92,5.28v1.06c0,2.01-0.72,3.86-1.92,5.3
		c1.2,1.43,1.92,3.28,1.92,5.28v1.06c0,2.01-0.72,3.87-1.92,5.3c1.2,1.43,1.92,3.28,1.92,5.3v1.05c0,4.54-3.69,8.24-8.23,8.24h-2
		v0.92c11.89,0.09,23.79,0.2,35.68,0.3c20.78-0.18,41.57-0.35,62.35-0.52c0.24,1.86,0.47,3.32,0.58,4.8
		c0.72,9.86,5.64,14.58,15.45,14.68c6.1,0.07,12.2,0.08,18.3,0.01c9.4-0.1,15.08-5.52,15.46-14.83c0.16-3.91,0.1-7.85-0.09-11.76
		c-0.24-4.87,0.61-9.44,2.17-14.06C250.12,158.58,252.19,147.23,251.61,135.57z M47.03,100.82c5.69-12.06,9.18-23.78,15.68-34.11
		c4-6.34,9.9-10.27,17.68-10.87c4.34-0.34,8.66-0.95,12.99-1.4c12.96-1.35,25.9-1.96,38.83-1.95c12.94-0.01,25.87,0.6,38.83,1.95
		c4.33,0.44,8.65,1.06,12.99,1.4c7.78,0.6,13.68,4.53,17.68,10.87c6.5,10.33,9.99,22.05,15.68,34.11
		c-28.61-1.94-56.91-2.81-85.19-2.75C103.94,98.01,75.63,98.88,47.03,100.82z M215.47,155.18c-3.05,0.05-6.1,0.01-9.14,0.01v-0.1
		c-3.7,0-7.42,0.22-11.11-0.05c-5.02-0.37-8.07-3.2-9.09-7.89c-1.09-5.08,0.03-8.79,4.79-10.91c6.12-2.72,12.64-4.56,19.07-6.54
		c2.89-0.89,5.95-1.31,8.96-1.67c6.79-0.8,11.27,2.92,11.97,9.76C231.95,147.88,225.66,155,215.47,155.18z"/>
	<path d="M99.48,149.47c1.66,0,3-1.33,3-3v-1.06c0-1.65-1.33-3-3-3h-7.23v-6.41c0-6.32-5.13-11.46-11.47-11.46h-7.3v-7.46
		c0-1.65-1.35-3-3-3h-1.06c-1.66,0-3,1.35-3,3v7.46h-4.59v-7.46c0-1.65-1.35-3-3-3h-1.06c-1.66,0-3,1.35-3,3v7.46H50.2v-7.46
		c0-1.65-1.35-3-3-3h-1.06c-1.66,0-3.01,1.35-3.01,3v7.46h-4.58v-7.46c0-1.65-1.35-3-3-3H34.5c-1.66,0-3.01,1.35-3.01,3v7.46h-5.51
		c-6.33,0-11.47,5.14-11.47,11.46v6.41H8.24c-1.66,0-3,1.35-3,3v1.06c0,1.66,1.33,3,3,3h6.28v4.59H8.24c-1.66,0-3,1.35-3,3v1.06
		c0,1.66,1.33,3.01,3,3.01h6.28v4.58H8.24c-1.66,0-3,1.35-3,3v1.06c0,1.66,1.33,3.01,3,3.01h6.28v4.58H8.24c-1.66,0-3,1.35-3,3.01
		v1.05c0,1.66,1.33,3.01,3,3.01h6.28v6.4c0,5.11,3.36,9.46,7.99,10.93c1.1,0.35,2.26,0.54,3.48,0.54h5.51v7.63
		c0,1.66,1.35,3.01,3.01,3.01h1.06c1.65,0,3-1.35,3-3.01v-7.63h4.58v7.63c0,1.66,1.35,3.01,3.01,3.01h1.06c1.65,0,3-1.35,3-3.01
		v-7.63h4.59v7.63c0,1.66,1.33,3.01,3,3.01h1.06c1.65,0,3-1.35,3-3.01v-7.63h4.59v7.63c0,1.66,1.33,3.01,3,3.01h1.06
		c1.65,0,3-1.35,3-3.01v-7.63h7.3c6.34,0,11.47-5.14,11.47-11.47v-6.4h7.23c1.66,0,3-1.35,3-3.01v-1.05c0-1.66-1.33-3.01-3-3.01
		h-7.23v-4.58h7.23c1.66,0,3-1.35,3-3.01v-1.06c0-1.65-1.33-3-3-3h-7.23v-4.58h7.23c1.66,0,3-1.35,3-3.01v-1.06c0-1.65-1.33-3-3-3
		h-7.23v-4.59H99.48z M82.37,177.69c0,1.02-0.1,2.03-0.31,3c-0.01,4.09-2.18,7.69-5.44,9.71c-1.75,1.09-3.82,1.71-6.03,1.71h-0.76
		c-0.24,0.09-0.48,0.16-0.73,0.2c-0.64,0.12-1.16,0.12-1.45,0.12H39.12c-1.01,0-1.99-0.1-2.96-0.31c-0.01,0.01-0.01,0.01-0.03,0
		c-6.3-0.01-11.42-5.15-11.42-11.47v-0.8c-0.13-0.33-0.22-0.68-0.27-1.05c-0.07-0.48-0.07-0.89-0.07-1.1v-8.82
		c0-0.65,0.12-1.28,0.34-1.86c-0.22-0.58-0.34-1.2-0.34-1.86v-16.01c0-1.06,0.12-2.09,0.34-3.1c0-0.01,0-0.03,0-0.03
		c0.09-5.83,4.54-10.62,10.23-11.22c0.41-0.04,0.81-0.07,1.22-0.07h1.41c0.55-0.21,1.15-0.31,1.77-0.31h28.31
		c1.02,0,2.03,0.1,3.01,0.31c0.01,0,0.01,0,0.01,0c0.5,0,0.99,0.04,1.48,0.1c0.01,0,0.01,0.01,0.01,0.01
		c5.59,0.76,9.89,5.55,9.9,11.33c0,0,0.01,0.01,0,0.03c0.21,0.95,0.31,1.95,0.31,2.94V177.69z"/>
</g>
<path d="M67.26,142.71H39.5c-3.83,0-6.93,3.1-6.93,6.92v27.76c0,3.82,3.1,6.92,6.93,6.92h27.76c3.82,0,6.92-3.1,6.92-6.92v-27.76
	C74.18,145.81,71.08,142.71,67.26,142.71z M62.79,156.77H51.5v3.63h9.13v5.56H51.5v4.09h11.29v5.97H43.96v-25.03h18.83V156.77z"/>
</svg>
