<?xml version="1.0" encoding="utf-8"?>
<!-- Generator: Adobe Illustrator 24.3.0, SVG Export Plug-In . SVG Version: 6.00 Build 0)  -->
<svg version="1.1" id="Layer_1" xmlns="http://www.w3.org/2000/svg" xmlns:xlink="http://www.w3.org/1999/xlink" x="0px" y="0px"
	 viewBox="0 0 256 256" style="enable-background:new 0 0 256 256;" xml:space="preserve">
<path d="M239.51,242.31c-7.45,7.45-17.23,11.18-26.99,11.18c-9.77,0-19.54-3.73-26.99-11.18l-56.62-56.62l-56.62,56.62
	c-14.91,14.91-39.07,14.91-53.98,0c-14.9-14.9-14.9-39.07,0-53.98l56.62-56.61L18.31,75.1c-14.9-14.91-14.9-39.08,0-53.98
	c14.91-14.91,39.07-14.91,53.98,0l56.62,56.62l56.62-56.62c14.9-14.91,39.07-14.91,53.98,0c7.45,7.45,11.17,17.22,11.17,26.99
	s-3.72,19.53-11.17,26.99l-56.62,56.62l56.62,56.61C254.41,203.24,254.41,227.41,239.51,242.31z"/>
</svg>
